<?xml version="1.0" encoding="UTF-8"?>
<svg width="161px" height="12px" viewBox="0 0 161 12" version="1.1" xmlns="http://www.w3.org/2000/svg" xmlns:xlink="http://www.w3.org/1999/xlink">
    <!-- Generator: Sketch 48.2 (47327) - http://www.bohemiancoding.com/sketch -->
    <title>Logo</title>
    <desc>Created with Sketch.</desc>
    <defs>
        <path d="M23.4552235,11.5550824 C22.9891059,11.7515529 22.5182824,11.8499059 22.0432235,11.8499059 C21.2935765,11.8499059 20.6196941,11.7197882 20.0211059,11.4590824 C19.4225176,11.1986118 18.9175765,10.8402588 18.5062824,10.3830824 C18.0952235,9.92614118 17.7796941,9.3892 17.5604,8.77225882 C17.3411059,8.15531765 17.2314588,7.49061176 17.2314588,6.77767059 C17.2314588,6.04661176 17.3411059,5.36825882 17.5604,4.74190588 C17.7796941,4.11602353 18.0952235,3.56967059 18.5062824,3.10378824 C18.9175765,2.63767059 19.4225176,2.27225882 20.0211059,2.00708235 C20.6196941,1.74214118 21.2935765,1.60943529 22.0432235,1.60943529 C22.5455765,1.60943529 23.0324,1.68496471 23.5032235,1.83578824 C23.9738118,1.98637647 24.3987529,2.20825882 24.7780471,2.50049412 C25.1571059,2.7932 25.4702824,3.15414118 25.7171059,3.58378824 C25.9639294,4.0132 26.1145176,4.50661176 26.1695765,5.06425882 L24.1133412,5.06425882 C23.9851059,4.51578824 23.7385176,4.10449412 23.3728706,3.83014118 C23.0072235,3.55602353 22.5641647,3.41908235 22.0432235,3.41908235 C21.5585176,3.41908235 21.1474588,3.51296471 20.8093412,3.70002353 C20.4712235,3.88755294 20.1971059,4.13884706 19.9869882,4.45414118 C19.7766353,4.76943529 19.6236941,5.12802353 19.5276941,5.53014118 C19.4316941,5.93249412 19.3836941,6.34825882 19.3836941,6.77767059 C19.3836941,7.18896471 19.4316941,7.58896471 19.5276941,7.9772 C19.6236941,8.36567059 19.7766353,8.71531765 19.9869882,9.02590588 C20.1971059,9.33672941 20.4712235,9.58567059 20.8093412,9.77296471 C21.1474588,9.96049412 21.5585176,10.0539059 22.0432235,10.0539059 C22.7561647,10.0539059 23.3065176,9.87367059 23.6952235,9.51249412 C24.0834588,9.15178824 24.3095765,8.62825882 24.3735765,7.94284706 L22.2076941,7.94284706 L22.2076941,6.33908235 L26.3201647,6.33908235 L26.3201647,11.6306118 L24.9493412,11.6306118 L24.7300471,10.5202588 C24.3462824,11.0136706 23.9211059,11.3588471 23.4552235,11.5550824 Z M32.9549882,1.84251765 L32.9549882,5.59875294 L36.9168706,5.59875294 L36.9168706,1.84251765 L39.0691059,1.84251765 L39.0691059,11.6305176 L36.9168706,11.6305176 L36.9168706,7.4084 L32.9549882,7.4084 L32.9549882,11.6305176 L30.8029882,11.6305176 L30.8029882,1.84251765 L32.9549882,1.84251765 Z M42.9349882,3.65216471 L42.9349882,1.84251765 L50.9545176,1.84251765 L50.9545176,3.65216471 L48.0208706,3.65216471 L48.0208706,11.6305176 L45.8686353,11.6305176 L45.8686353,3.65216471 L42.9349882,3.65216471 Z M62.1406353,1.84251765 L62.1406353,3.65216471 L56.9726353,3.65216471 L56.9726353,5.74957647 L61.7156941,5.74957647 L61.7156941,7.42204706 L56.9726353,7.42204706 L56.9726353,9.82110588 L62.2502824,9.82110588 L62.2502824,11.6305176 L54.8204,11.6305176 L54.8204,1.84251765 L62.1406353,1.84251765 Z M68.5973412,1.84251765 L68.5973412,9.82110588 L73.3679294,9.82110588 L73.3679294,11.6305176 L66.4451059,11.6305176 L66.4451059,1.84251765 L68.5973412,1.84251765 Z M79.4681882,1.84251765 L79.4681882,9.82110588 L84.2385412,9.82110588 L84.2385412,11.6305176 L77.3159529,11.6305176 L77.3159529,1.84251765 L79.4681882,1.84251765 Z M88.1865882,11.6306353 L88.1865882,1.84263529 L90.3388235,1.84263529 L90.3388235,11.6306353 L88.1865882,11.6306353 Z M100.771035,11.5550824 C100.305153,11.7515529 99.8343294,11.8499059 99.3592706,11.8499059 C98.6096235,11.8499059 97.9355059,11.7197882 97.3369176,11.4590824 C96.7383294,11.1986118 96.2333882,10.8402588 95.8223294,10.3830824 C95.4110353,9.92614118 95.0957412,9.3892 94.8762118,8.77225882 C94.6571529,8.15531765 94.5475059,7.49061176 94.5475059,6.77767059 C94.5475059,6.04661176 94.6571529,5.36825882 94.8762118,4.74190588 C95.0957412,4.11602353 95.4110353,3.56967059 95.8223294,3.10378824 C96.2333882,2.63767059 96.7383294,2.27225882 97.3369176,2.00708235 C97.9355059,1.74214118 98.6096235,1.60943529 99.3592706,1.60943529 C99.8616235,1.60943529 100.348212,1.68496471 100.819035,1.83578824 C101.289624,1.98637647 101.714565,2.20825882 102.093859,2.50049412 C102.472918,2.7932 102.786094,3.15414118 103.032918,3.58378824 C103.279741,4.0132 103.430565,4.50661176 103.485388,5.06425882 L101.429153,5.06425882 C101.300918,4.51578824 101.054329,4.10449412 100.688682,3.83014118 C100.323271,3.55602353 99.8799765,3.41908235 99.3592706,3.41908235 C98.8743294,3.41908235 98.4632706,3.51296471 98.1253882,3.70002353 C97.7870353,3.88755294 97.5129176,4.13884706 97.3030353,4.45414118 C97.0924471,4.76943529 96.9395059,5.12802353 96.8437412,5.53014118 C96.7475059,5.93249412 96.6995059,6.34825882 96.6995059,6.77767059 C96.6995059,7.18896471 96.7475059,7.58896471 96.8437412,7.9772 C96.9395059,8.36567059 97.0924471,8.71531765 97.3030353,9.02590588 C97.5129176,9.33672941 97.7870353,9.58567059 98.1253882,9.77296471 C98.4632706,9.96049412 98.8743294,10.0539059 99.3592706,10.0539059 C100.071976,10.0539059 100.622329,9.87367059 101.011035,9.51249412 C101.399506,9.15178824 101.625624,8.62825882 101.689388,7.94284706 L99.5235059,7.94284706 L99.5235059,6.33908235 L103.636212,6.33908235 L103.636212,11.6306118 L102.265388,11.6306118 L102.045859,10.5202588 C101.662094,11.0136706 101.237153,11.3588471 100.771035,11.5550824 Z M115.439012,1.84251765 L115.439012,3.65216471 L110.271012,3.65216471 L110.271012,5.74957647 L115.014071,5.74957647 L115.014071,7.42204706 L110.271012,7.42204706 L110.271012,9.82110588 L115.548659,9.82110588 L115.548659,11.6305176 L108.118776,11.6305176 L108.118776,1.84251765 L115.439012,1.84251765 Z M121.882259,1.84251765 L125.9672,8.40910588 L125.994965,8.40910588 L125.994965,1.84251765 L128.010024,1.84251765 L128.010024,11.6305176 L125.857788,11.6305176 L121.786259,5.07781176 L121.758965,5.07781176 L121.758965,11.6305176 L119.743671,11.6305176 L119.743671,1.84251765 L121.882259,1.84251765 Z M138.921788,4.45409412 C138.793788,4.24844706 138.633788,4.06821176 138.442259,3.91244706 C138.250259,3.75715294 138.033082,3.63621176 137.790729,3.54938824 C137.548612,3.46256471 137.2952,3.41903529 137.030259,3.41903529 C136.545553,3.41903529 136.134259,3.51291765 135.796376,3.69997647 C135.458024,3.88750588 135.183906,4.1388 134.974024,4.45409412 C134.763435,4.76938824 134.610494,5.12797647 134.514729,5.53009412 C134.418494,5.93244706 134.370494,6.34821176 134.370494,6.77762353 C134.370494,7.18891765 134.418494,7.58891765 134.514729,7.97715294 C134.610494,8.36585882 134.763435,8.71527059 134.974024,9.02585882 C135.183906,9.33668235 135.458024,9.58585882 135.796376,9.77291765 C136.134259,9.96044706 136.545553,10.0538588 137.030259,10.0538588 C137.688141,10.0538588 138.202024,9.85315294 138.572376,9.4508 C138.942494,9.04891765 139.168612,8.51856471 139.250729,7.86068235 L141.334729,7.86068235 C141.279671,8.47315294 141.138024,9.02585882 140.909553,9.51950588 C140.681318,10.0129176 140.379435,10.4333882 140.004847,10.7806824 C139.630024,11.1279765 139.191435,11.3931529 138.688847,11.5757412 C138.186024,11.7583294 137.633082,11.8498588 137.030259,11.8498588 C136.280612,11.8498588 135.606494,11.7197412 135.007906,11.4590353 C134.409318,11.1988 133.904612,10.8402118 133.493318,10.3830353 C133.082024,9.92609412 132.766729,9.38915294 132.5472,8.77221176 C132.328141,8.15527059 132.218494,7.49056471 132.218494,6.77762353 C132.218494,6.04656471 132.328141,5.36821176 132.5472,4.74185882 C132.766729,4.11597647 133.082024,3.56985882 133.493318,3.10374118 C133.904612,2.63762353 134.409318,2.27244706 135.007906,2.00703529 C135.606494,1.74232941 136.280612,1.60962353 137.030259,1.60962353 C137.569318,1.60962353 138.078729,1.68727059 138.558729,1.84256471 C139.038494,1.99809412 139.467906,2.22421176 139.8472,2.52115294 C140.226259,2.81809412 140.539435,3.18585882 140.786494,3.62491765 C141.033082,4.06327059 141.188376,4.56609412 141.252376,5.13268235 L139.168612,5.13268235 C139.132141,4.88585882 139.049788,4.65974118 138.921788,4.45409412 Z M152.863647,1.84251765 L152.863647,3.65216471 L147.695412,3.65216471 L147.695412,5.74957647 L152.438471,5.74957647 L152.438471,7.42204706 L147.695412,7.42204706 L147.695412,9.82110588 L152.973294,9.82110588 L152.973294,11.6305176 L145.543412,11.6305176 L145.543412,1.84251765 L152.863647,1.84251765 Z M0,1.84256471 L2.15223529,1.84256471 L2.15223529,9.82091765 L6.92282353,9.82091765 L6.92282353,11.6305647 L0,11.6305647 L0,1.84256471 Z M10.8708235,11.6306353 L10.8708235,1.84263529 L13.0232941,1.84263529 L13.0232941,11.6306353 L10.8708235,11.6306353 Z M160.295482,4.22315294 C159.843953,4.65985882 159.302071,4.87844706 158.670306,4.87844706 C158.016894,4.87844706 157.466776,4.65468235 157.019482,4.20738824 C156.572188,3.76009412 156.348424,3.20997647 156.348424,2.5568 C156.348424,1.87844706 156.590071,1.31468235 157.072894,0.865270588 C157.526541,0.445270588 158.059012,0.235388235 158.670306,0.235388235 C159.310541,0.235388235 159.8576,0.462211765 160.311247,0.915623529 C160.764894,1.36927059 160.991718,1.91632941 160.991718,2.5568 C160.991718,3.21632941 160.759482,3.77162353 160.295482,4.22315294 Z M157.306306,1.21185882 C156.936424,1.58974118 156.751718,2.03821176 156.751718,2.5568 C156.751718,3.09444706 156.939718,3.55115294 157.315718,3.92715294 C157.689365,4.30291765 158.140894,4.49091765 158.670306,4.49091765 C159.197365,4.49091765 159.647718,4.30174118 160.0216,3.92385882 C160.395247,3.54385882 160.582071,3.08809412 160.582071,2.5568 C160.582071,2.04032941 160.396188,1.59185882 160.024424,1.21185882 C159.648659,0.825505882 159.197365,0.632094118 158.670306,0.632094118 C158.136659,0.632094118 157.682071,0.825505882 157.306306,1.21185882 Z M157.652659,3.84832941 L157.652659,1.27468235 C157.812188,1.27468235 158.051247,1.27538824 158.369129,1.27632941 C158.687482,1.27750588 158.864424,1.27891765 158.899953,1.28103529 C159.103718,1.29585882 159.272894,1.33985882 159.407012,1.41350588 C159.635953,1.53938824 159.750541,1.74409412 159.750541,2.02762353 C159.750541,2.24385882 159.690071,2.40009412 159.569365,2.49609412 C159.448659,2.59232941 159.299953,2.64974118 159.123718,2.6688 C159.2856,2.70244706 159.407012,2.75209412 159.489129,2.81727059 C159.640424,2.93985882 159.715953,3.13209412 159.715953,3.39468235 L159.715953,3.6248 C159.715953,3.64974118 159.7176,3.67491765 159.720894,3.70032941 C159.724188,3.72550588 159.730541,3.75068235 159.739482,3.77585882 L159.763012,3.84832941 L159.120659,3.84832941 C159.099718,3.76644706 159.085365,3.64785882 159.078071,3.49232941 C159.070776,3.3368 159.056424,3.23209412 159.035482,3.17727059 C159.002071,3.08715294 158.939012,3.02409412 158.846541,2.98832941 C158.796188,2.96738824 158.719482,2.95374118 158.616659,2.94738824 L158.468424,2.93797647 L158.326776,2.93797647 L158.326776,3.84832941 L157.652659,3.84832941 Z M158.881129,1.78197647 C158.788659,1.74621176 158.658776,1.72832941 158.490541,1.72832941 L158.326776,1.72832941 L158.326776,2.47491765 L158.588188,2.47491765 C158.745835,2.47491765 158.868424,2.44338824 158.956659,2.38032941 C159.044894,2.31750588 159.089129,2.21562353 159.089129,2.07491765 C159.089129,1.93421176 159.019718,1.83656471 158.881129,1.78197647 Z" id="path-1"></path>
    </defs>
    <g id="manage-devices/xl" stroke="none" stroke-width="1" fill="none" fill-rule="evenodd" transform="translate(-32.000000, -26.000000)">
        <g id="global/header/l-navigate">
            <g id="left" transform="translate(32.000000, 0.000000)">
                <g id="nav">
                    <g id="Logo" transform="translate(0.000000, 26.000000)">
                        <mask id="mask-2" fill="white">
                            <use xlink:href="#path-1"></use>
                        </mask>
                        <use fill="#000000" xlink:href="#path-1"></use>
                        <g id="color" mask="url(#mask-2)" fill="#FFFFFF">
                            <rect id="Rectangle-7-Copy" x="0" y="0" width="161" height="12"></rect>
                        </g>
                    </g>
                </g>
            </g>
        </g>
    </g>
</svg>